<svg width="16" height="16" viewBox="0 0 16 16" fill="none" xmlns="http://www.w3.org/2000/svg">
<path d="M10.6666 8.73334H12V10.0667H10.6666V8.73334ZM10.6666 11H12V14.1333H10.6666V11Z" fill="#C7C8CA"/>
<path d="M11.4 8.20001C13.1333 8.20001 14.6 9.60001 14.6 11.4C14.6 13.2 13.2 14.6 11.4 14.6C9.6 14.6 8.2 13.2 8.2 11.4C8.2 9.60001 9.6 8.20001 11.4 8.20001ZM11.4 7.06668C9 7.06668 7 9.00001 7 11.4667C7 13.9333 8.93333 15.8667 11.4 15.8667C13.8 15.8667 15.8 13.9333 15.8 11.4667C15.8 9.00001 13.8 7.06668 11.4 7.06668Z" fill="#C7C8CA"/>
<path d="M5.73332 5.46666C7.19998 5.46666 8.39998 4.26666 8.39998 2.8C8.39998 1.33333 7.19998 0.133331 5.73332 0.133331C4.26665 0.133331 3.06665 1.33333 3.06665 2.8C3.06665 4.26666 4.19998 5.46666 5.73332 5.46666ZM5.73332 1.4C6.53332 1.4 7.13332 2 7.13332 2.8C7.13332 3.6 6.53332 4.2 5.73332 4.2C4.93332 4.2 4.33332 3.6 4.33332 2.8C4.33332 2 4.93332 1.4 5.73332 1.4Z" fill="#C7C8CA"/>
<path d="M6.06667 9.53333H1.66667V8.8C1.66667 8.4 3.73334 7.4 5.73334 7.4C6.26667 7.4 6.73334 7.46666 7.26667 7.6C7.60001 7.2 8.00001 6.86666 8.46667 6.6C7.53334 6.33333 6.53334 6.13333 5.80001 6.13333C4.00001 6.13333 0.466675 7 0.466675 8.8V10.8H5.93334C5.86667 10.3333 5.93334 9.93333 6.06667 9.53333Z" fill="#C7C8CA"/>
</svg>
