<svg width="16" height="16" viewBox="0 0 16 16" fill="none" xmlns="http://www.w3.org/2000/svg">
<path d="M10.6665 8.73334H11.9998V10.0667H10.6665V8.73334ZM10.6665 11H11.9998V14.1333H10.6665V11Z" fill="black"/>
<path d="M11.4 8.20001C13.1333 8.20001 14.6 9.60001 14.6 11.4C14.6 13.2 13.2 14.6 11.4 14.6C9.6 14.6 8.2 13.2 8.2 11.4C8.2 9.60001 9.6 8.20001 11.4 8.20001ZM11.4 7.06668C9 7.06668 7 9.00001 7 11.4667C7 13.9333 8.93333 15.8667 11.4 15.8667C13.8 15.8667 15.8 13.9333 15.8 11.4667C15.8 9.00001 13.8 7.06668 11.4 7.06668Z" fill="black"/>
<path d="M5.73356 5.46666C7.20023 5.46666 8.40023 4.26666 8.40023 2.8C8.40023 1.33333 7.20023 0.133331 5.73356 0.133331C4.26689 0.133331 3.06689 1.33333 3.06689 2.8C3.06689 4.26666 4.20023 5.46666 5.73356 5.46666ZM5.73356 1.4C6.53356 1.4 7.13356 2 7.13356 2.8C7.13356 3.6 6.53356 4.2 5.73356 4.2C4.93356 4.2 4.33356 3.6 4.33356 2.8C4.33356 2 4.93356 1.4 5.73356 1.4Z" fill="black"/>
<path d="M6.0668 9.53333H1.6668V8.8C1.6668 8.4 3.73346 7.4 5.73346 7.4C6.2668 7.4 6.73346 7.46666 7.2668 7.6C7.60013 7.2 8.00013 6.86666 8.4668 6.6C7.53346 6.33333 6.53346 6.13333 5.80013 6.13333C4.00013 6.13333 0.466797 7 0.466797 8.8V10.8H5.93346C5.8668 10.3333 5.93346 9.93333 6.0668 9.53333Z" fill="black"/>
</svg>
