<svg width="250" height="69" viewBox="0 0 250 69" fill="none" xmlns="http://www.w3.org/2000/svg">
<rect width="250" height="69" fill="#C4C4C4"/>
<path d="M55.0691 13.3614H57.591V34.1667H55.0691V36.0766H65.2994V34.1667H62.7775V13.3614H65.2994V11.426H55.0691V13.3614Z" fill="white"/>
<path d="M118.569 13.3614H121.091V34.1667H118.569V36.0766H128.799V34.1667H126.277V13.3614H128.799V11.426H118.569V13.3614Z" fill="white"/>
<path d="M105.983 31.5437L101.344 18.3526L101.439 18.5818C102.819 14.7365 106.268 14.9403 108.196 15.1949C110.051 15.4496 110.527 16.1626 111.907 15.9079L105.983 31.5437ZM116.832 11.477C113.572 11.9863 110.099 11.426 107.648 11.426C105.222 11.426 101.938 13.667 100.796 16.7738L99.5831 13.3614H101.225V11.426H93.4924V13.3614H94.3965L102.39 36.0256H107.577L115.856 14.0999L117.427 13.3614C117.427 13.3614 117.736 11.3496 116.832 11.477Z" fill="white"/>
<path d="M84.4041 13.3614H86.7357V28.1823L74.3641 11.426H67.6073V13.3614H70.1292V34.1667H67.6073V36.0766H75.3395V34.1667H73.008V18.4036L86.7357 36.0256H89.6144V13.3614H92.1363V11.426H84.4041V13.3614Z" fill="white"/>
<path d="M149.307 18.0216L150.568 19.4731L156.468 14.4564L155.208 13.0049L153.899 14.1253C151.567 12.0881 148.26 11.1204 144.93 11.1204C137.768 11.1204 131.963 16.9011 131.963 24.0569C131.963 31.2126 137.768 36.9933 144.93 36.9933C149.093 36.9933 152.781 35.0325 155.16 31.9766L154.113 31.0598C151.02 33.9629 148.118 34.0902 145.62 34.0902C141.028 34.0902 137.316 29.3791 137.316 23.5475C137.316 17.716 141.028 13.0049 145.62 13.0049C148.308 13.0049 151.448 15.2458 149.474 17.8433L149.307 18.0216Z" fill="white"/>
<path d="M170.767 13.3614C171.933 13.3614 175.597 13.0813 177.119 17.9452L179.023 17.6142L177.69 10L175.787 10.3311L175.977 11.4261H160.323L160.513 10.3311L158.61 10L157.277 17.6142L159.181 17.9452C160.68 13.1068 164.296 13.3614 165.509 13.3614V34.1667H162.987V36.1021H173.218V34.1667H170.696V13.3614H170.767Z" fill="white"/>
<path d="M184.471 27.0363L188.825 14.6601L193.179 27.0363H184.471ZM200.887 34.1666L192.869 11.4515H186.684L178.666 34.1666H176.453V36.102H184.185V34.1666H181.949L183.781 28.9717H193.869L195.701 34.1666H193.869V36.102H202.743V34.1666H200.887Z" fill="white"/>
<path d="M100.005 54.1479V45.8921H101.124V53.2339H105.296V54.1479H100.005ZM114.46 49.9819C114.46 50.8452 114.294 51.6011 113.962 52.2495C113.634 52.8979 113.162 53.396 112.544 53.7437C111.927 54.0913 111.199 54.2651 110.359 54.2651C109.511 54.2651 108.779 54.0933 108.162 53.7495C107.548 53.4058 107.079 52.9097 106.755 52.2612C106.431 51.6089 106.269 50.8491 106.269 49.9819C106.269 48.6616 106.63 47.6304 107.353 46.8882C108.076 46.1421 109.081 45.769 110.371 45.769C111.21 45.769 111.939 45.937 112.556 46.2729C113.173 46.605 113.644 47.0894 113.968 47.7261C114.296 48.3628 114.46 49.1147 114.46 49.9819ZM113.318 49.9819C113.318 48.9546 113.06 48.1479 112.544 47.562C112.033 46.9761 111.308 46.6831 110.371 46.6831C109.425 46.6831 108.695 46.9722 108.179 47.5503C107.663 48.1284 107.406 48.939 107.406 49.9819C107.406 51.0171 107.665 51.8394 108.185 52.4487C108.708 53.0542 109.433 53.3569 110.359 53.3569C111.312 53.3569 112.042 53.064 112.55 52.478C113.062 51.8882 113.318 51.0562 113.318 49.9819ZM119.593 50.7261V54.1479H118.48V50.7261L115.304 45.8921H116.535L119.048 49.8237L121.55 45.8921H122.781L119.593 50.7261ZM128.992 54.1479L128.048 51.7339H124.287L123.337 54.1479H122.177L125.546 45.8921H126.818L130.134 54.1479H128.992ZM126.167 46.7358L126.115 46.8999C126.017 47.2241 125.872 47.6401 125.681 48.1479L124.626 50.8608H127.714L126.654 48.1362C126.544 47.8667 126.435 47.562 126.326 47.2222L126.167 46.7358ZM131.142 54.1479V45.8921H132.261V53.2339H136.433V54.1479H131.142ZM140.165 46.8062V54.1479H139.052V46.8062H136.216V45.8921H143.001V46.8062H140.165ZM147.835 50.7261V54.1479H146.722V50.7261L143.546 45.8921H144.777L147.29 49.8237L149.792 45.8921H151.023L147.835 50.7261Z" fill="white"/>
</svg>
