<svg width="16" height="13" viewBox="0 0 16 13" fill="none" xmlns="http://www.w3.org/2000/svg">
<path d="M12.0166 5.51038H4.0498V6.83818H12.0166V5.51038Z" fill="#C7C8CA"/>
<path d="M12.0166 2.85477H4.0498V4.18257H12.0166V2.85477Z" fill="#C7C8CA"/>
<path d="M12.0166 8.16595H4.0498V9.49376H12.0166V8.16595Z" fill="#C7C8CA"/>
<path d="M16 2.12448C16 0.929461 15.0705 0 13.8755 0H2.12448C0.929461 0 0 0.929461 0 2.12448C0 3.25311 0.86307 4.18257 2.05809 4.24896V12.8133L3.05394 11.8174L4.04979 12.8133L5.04564 11.8174L6.04149 12.8133L7.03734 11.8174L8.03319 12.8133L9.02905 11.8174L10.0249 12.8133L11.0207 11.8174L12.0166 12.8133L13.0124 11.8174L14.0083 12.8133V4.24896C15.1369 4.18257 16 3.25311 16 2.12448ZM1.3278 2.12448C1.3278 1.72614 1.65975 1.39419 2.05809 1.3278V2.85477C1.65975 2.85477 1.3278 2.52282 1.3278 2.12448ZM12.6805 10.888H3.38589V1.46058H12.6805V10.888ZM14.0083 2.92116V1.3278C14.4066 1.39419 14.7386 1.72614 14.7386 2.12448C14.6722 2.52282 14.4066 2.85477 14.0083 2.92116Z" fill="#C7C8CA"/>
</svg>
