<svg width="19" height="24" viewBox="0 0 19 24" fill="none" xmlns="http://www.w3.org/2000/svg">
<path d="M9.473 5.59396C7.69984 5.59396 6.25659 6.94311 6.25659 8.60066C6.25659 10.2582 7.69984 11.6074 9.473 11.6074C11.2462 11.6074 12.6894 10.2582 12.6894 8.60066C12.6894 6.94311 11.2462 5.59396 9.473 5.59396ZM9.473 10.7483C8.20619 10.7483 7.17557 9.78487 7.17557 8.60066C7.17557 7.41645 8.20619 6.45302 9.473 6.45302C10.7398 6.45302 11.7704 7.41645 11.7704 8.60066C11.7704 9.78487 10.7398 10.7483 9.473 10.7483Z" fill="#58595B"/>
<path d="M15.6223 2.8523C13.958 1.29655 11.7451 0.439636 9.39163 0.439636C7.03768 0.439636 4.82525 1.29655 3.16098 2.8523C0.0810361 5.731 -0.301717 11.1474 2.33207 14.429L9.39163 23.9593L16.4406 14.4423C19.085 11.1474 18.7022 5.731 15.6223 2.8523ZM15.6953 13.9402L9.39163 22.45L3.07782 13.9268C0.688939 10.9493 1.03126 6.05787 3.81116 3.45965C5.30174 2.06626 7.28351 1.29869 9.39163 1.29869C11.4998 1.29869 13.4815 2.06626 14.9726 3.45965C17.7525 6.05787 18.0948 10.9493 15.6953 13.9402Z" fill="#58595B"/>
</svg>
