<svg width="18" height="20" viewBox="0 0 18 20" fill="none" xmlns="http://www.w3.org/2000/svg">
<path d="M0.579834 5.07371H4.93115V0.723572H0.579834V5.07371ZM1.33807 1.4818H4.17233V4.31607H1.33807V1.4818Z" fill="#58595B"/>
<path d="M0.579834 9.8363H4.93115V5.48499H0.579834V9.8363ZM1.33807 6.24381H4.17233V9.07748H1.33807V6.24381Z" fill="#58595B"/>
<path d="M0.579834 14.5793H4.93115V10.228H0.579834V14.5793ZM1.33807 10.9862H4.17233V13.8205H1.33807V10.9862Z" fill="#58595B"/>
<path d="M0.579834 19.3244H4.93115V14.9731H0.579834V19.3244ZM1.33807 15.7313H4.17233V18.5655H1.33807V15.7313Z" fill="#58595B"/>
<path d="M17.5138 1.59821H6.09741V2.45048H17.5138V1.59821Z" fill="#58595B"/>
<path d="M14.2928 3.11401H6.09741V3.96688H14.2928V3.11401Z" fill="#58595B"/>
<path d="M17.5138 6.09924H6.09741V6.95152H17.5138V6.09924Z" fill="#58595B"/>
<path d="M14.2928 7.6153H6.09741V8.46757H14.2928V7.6153Z" fill="#58595B"/>
<path d="M17.7988 10.9774H6.38123V11.8302H17.7988V10.9774Z" fill="#58595B"/>
<path d="M14.5772 12.4938H6.38123V13.3466H14.5772V12.4938Z" fill="#58595B"/>
<path d="M17.7988 15.6214H6.38123V16.4736H17.7988V15.6214Z" fill="#58595B"/>
<path d="M14.5772 17.1373H6.38123V17.9902H14.5772V17.1373Z" fill="#58595B"/>
</svg>
