<svg width="19" height="18" viewBox="0 0 19 18" fill="none" xmlns="http://www.w3.org/2000/svg">
<path d="M17.4821 8.68392L17.0439 5.16154C18.7567 4.0057 19.4668 2.06601 18.4409 1.11073C18.0029 0.702816 17.3183 0.56976 16.563 0.745644C15.8939 0.90142 15.2076 1.28309 14.6308 1.82027C14.6238 1.82693 14.617 1.83372 14.61 1.84025L9.54618 1.29393L0.537842 9.68282L8.47365 17.0728L17.4821 8.68392ZM16.8244 1.71921C17.2036 1.63094 17.5151 1.66776 17.6788 1.82027C18.0776 2.19163 17.7124 3.22134 16.8956 3.96966L16.7701 2.96097L15.8885 2.14005C16.1962 1.93727 16.5198 1.79011 16.8244 1.71921ZM9.93977 2.34675L13.8503 2.76864C13.6858 3.03906 13.5619 3.31666 13.4849 3.59178L13.1067 3.23962L12.3448 3.94916L14.6308 6.07805L15.3929 5.36837L14.6308 4.65883C14.467 4.50632 14.4275 4.21632 14.5223 3.86311C14.6068 3.54817 14.7922 3.21154 15.0482 2.89777L15.1953 2.9137L15.7429 3.4236L16.3517 8.31753L8.47365 15.6536L2.06188 9.68282L9.93977 2.34675Z" fill="#58595B"/>
<path d="M6.01921 7.50433C5.2637 7.50433 4.64893 8.11757 4.64893 8.87132C4.64893 9.62494 5.2637 10.2382 6.01921 10.2382C6.77483 10.2382 7.38961 9.62494 7.38961 8.87132C7.38961 8.11757 6.77483 7.50433 6.01921 7.50433ZM6.01921 9.32686C5.76733 9.32686 5.56253 9.12245 5.56253 8.87132C5.56253 8.62007 5.76733 8.41566 6.01921 8.41566C6.27108 8.41566 6.47601 8.62007 6.47601 8.87132C6.47601 9.12245 6.2712 9.32686 6.01921 9.32686Z" fill="#58595B"/>
<path d="M12.8709 10.2382C13.6265 10.2382 14.2413 9.62494 14.2413 8.87132C14.2413 8.11757 13.6265 7.50433 12.8709 7.50433C12.1153 7.50433 11.5006 8.11757 11.5006 8.87132C11.5006 9.62494 12.1153 10.2382 12.8709 10.2382ZM12.8709 8.41566C13.1228 8.41566 13.3277 8.62007 13.3277 8.87132C13.3277 9.12245 13.1228 9.32686 12.8709 9.32686C12.619 9.32686 12.4141 9.12245 12.4141 8.87132C12.4141 8.62007 12.619 8.41566 12.8709 8.41566Z" fill="#58595B"/>
<path d="M9.25031 6.13739L10.211 6.30744L9.23701 12.5164L8.27637 12.3462L9.25031 6.13739Z" fill="#58595B"/>
</svg>
