<svg width="217" height="83" viewBox="0 0 217 83" fill="none" xmlns="http://www.w3.org/2000/svg">
<path d="M192.283 14.1142C189.067 16.1155 186.13 16.923 183.683 17.4848L183.158 17.6252L183.263 18.1168C183.473 18.9594 183.508 19.5914 183.018 20.2234C181.83 21.8384 177.425 23.2077 169.524 24.3663L169.034 24.4365V24.9281C169.034 28.4391 162.217 28.9306 154.001 29.1764L153.407 29.2115L153.442 29.7382C153.477 30.1595 153.337 30.5106 153.022 30.7915C151.204 32.3363 144.352 31.4585 139.318 30.8266L133.409 30.1244L133.899 31.0021C134.039 31.2479 133.969 31.3181 133.934 31.3532C133.479 31.9852 130.543 32.1607 127.082 31.8096L126.452 31.7394V32.3363C126.452 33.9162 126.452 34.478 120.789 34.478H120.264V35.0047C120.264 36.5846 116.698 36.5846 112.888 36.5846H112.328V37.1113C112.328 37.357 112.258 37.4272 112.223 37.4624C111.839 37.7783 110.44 37.7432 108.657 37.7081C108.657 37.7081 108.378 37.7081 108.238 37.7081L123.865 23.0673C124.145 22.8215 124.32 22.681 124.32 22.681C124.32 22.681 124.11 22.4704 123.76 22.1193L114.81 13.728C115.335 12.2534 116.978 11.3405 122.816 11.3405L174.453 12.1832C177.809 12.1832 181.026 11.797 184.102 11.4459C186.759 11.1299 189.241 10.849 191.444 10.849C193.507 10.849 194.381 11.2703 194.52 11.6214C194.66 12.0778 194.031 13.0258 192.283 14.1142ZM100.127 43.8173C99.3578 43.1151 78.2766 23.3832 77.5425 22.681C78.3116 21.9788 99.3578 2.24704 100.127 1.54484C100.896 2.24704 121.942 21.9788 122.711 22.681C121.977 23.3481 100.896 43.0799 100.127 43.8173ZM91.5966 37.7081C89.8136 37.7432 88.4152 37.7783 88.0306 37.4624C87.9957 37.4272 87.9257 37.357 87.9257 37.1113V36.5846H87.3664C83.5906 36.5846 79.9897 36.5846 79.9897 35.0047V34.478H79.4303C73.7667 34.478 73.7667 33.9514 73.7667 32.3363V31.7745L73.1374 31.8448C69.7113 32.1959 66.7397 32.0203 66.2852 31.3883C66.2502 31.3532 66.2152 31.283 66.3201 31.0372L66.7746 30.1595L60.9012 30.8266C55.9019 31.4937 49.0147 32.3714 47.2317 30.7915C46.917 30.5106 46.7772 30.1946 46.8122 29.7382L46.8471 29.2115L46.2528 29.1764C38.0021 28.9306 31.1848 28.4391 31.1848 24.9281V24.4717L30.7303 24.4014C22.8292 23.2428 18.4242 21.8735 17.2355 20.2585C16.7811 19.6265 16.816 18.9594 16.9908 18.1168L17.1307 17.6252L16.6063 17.4848C14.1241 16.923 11.1874 16.1155 7.97101 14.1142C6.22298 13.0258 5.55873 12.0778 5.73353 11.6214C5.87337 11.2352 6.74739 10.849 8.81006 10.849C11.0475 10.849 13.5297 11.1299 16.1518 11.4459C19.2633 11.797 22.4447 12.1832 25.8009 12.1832L77.4376 11.3756C83.276 11.3756 84.9191 12.2885 85.4435 13.7631C84.9891 14.2195 75.9343 22.681 75.9343 22.681L92.0161 37.7432C91.8413 37.7081 91.5966 37.7081 91.5966 37.7081ZM195.604 11.3405C195.29 10.3223 193.856 9.79568 191.444 9.79568C189.136 9.79568 186.619 10.0766 183.962 10.3926C180.886 10.7437 177.739 11.1299 174.453 11.1299L122.816 10.3223C118.237 10.3223 115.09 10.7788 113.936 12.9556L100.127 0L86.3176 12.9556C85.1639 10.8139 82.0524 10.3223 77.4376 10.3223L25.8009 11.1299C22.5146 11.1299 19.3332 10.7437 16.2916 10.3926C13.5996 10.0766 11.0825 9.79568 8.81006 9.79568C6.36282 9.79568 4.9644 10.3223 4.64976 11.3405C4.57983 11.481 4.57983 11.6214 4.57983 11.7618C4.57983 12.7449 5.52377 13.8684 7.34172 14.992C10.5231 16.9581 13.3549 17.8008 15.8371 18.3976C15.8022 18.6434 15.7322 18.8541 15.7322 19.0998C15.7322 19.6616 15.8721 20.2585 16.2916 20.8202C17.69 22.7162 21.9902 24.1206 30.1709 25.3494C30.6604 29.2817 37.198 29.9137 45.7284 30.1946C45.7983 30.7212 46.0081 31.1777 46.4276 31.5288C48.6301 33.4247 55.2376 32.5821 61.0411 31.8448C61.0411 31.8448 64.0827 31.4937 65.0965 31.3532C65.1315 31.599 65.2014 31.8096 65.3063 31.9501C66.3201 33.2843 70.3756 33.1087 72.613 32.8981C72.7179 34.7589 73.6968 35.4611 78.9409 35.4962C79.4653 37.5326 82.9264 37.6379 86.9818 37.6379C87.0517 37.8486 87.0517 38.0592 87.2265 38.1997C87.9257 38.8316 89.2193 38.7965 91.5966 38.7263L93.0649 38.6912L100.092 45.2568L107.119 38.6912L108.587 38.7263C110.965 38.7965 112.258 38.8316 112.957 38.1997C113.097 38.0592 113.097 37.8135 113.202 37.6379C117.293 37.6379 120.754 37.5677 121.243 35.4962C126.487 35.4611 127.431 34.7589 127.571 32.8981C129.808 33.1087 133.899 33.2843 134.878 31.9501C134.983 31.8096 135.053 31.599 135.087 31.3532C136.136 31.4585 139.143 31.8448 139.143 31.8448C144.981 32.5821 151.554 33.4598 153.756 31.5288C154.176 31.1777 154.386 30.7212 154.456 30.1946C163.021 29.9137 169.524 29.2817 170.048 25.3494C178.229 24.1206 182.529 22.7162 183.927 20.8202C184.347 20.2233 184.487 19.6616 184.487 19.0998C184.487 18.8541 184.452 18.6434 184.382 18.3976C186.864 17.8008 189.696 16.9581 192.877 14.992C194.695 13.8684 195.639 12.7098 195.639 11.7618C195.674 11.6214 195.674 11.481 195.604 11.3405Z" fill="#58595B"/>
<path d="M106.07 12.1832V17.2039H111.454V28.3689H106.07V33.4247H94.1487V28.3689H88.7647V17.2039H94.1487V12.1832H106.07ZM93.0299 11.0948V16.1506H87.646V29.4222H93.0299V34.478H107.224V29.4222H112.608V16.1506H107.224V11.0948H93.0299Z" fill="#58595B"/>
<path d="M0 50.4179H3.70582V79.1028H0V81.736H15.033V79.1028H11.3272V50.4179H15.033V47.7496H0V50.4179Z" fill="#58595B"/>
<path d="M93.3096 50.4179H97.0154V79.1028H93.3096V81.736H108.343V79.1028H104.637V50.4179H108.343V47.7496H93.3096V50.4179Z" fill="#58595B"/>
<path d="M74.8155 75.4865L67.9982 57.2995L68.138 57.6155C70.1657 52.3139 75.235 52.5948 78.0668 52.9458C80.7937 53.2969 81.4929 54.28 83.5206 53.9289L74.8155 75.4865ZM90.7575 47.8198C85.9679 48.522 80.8636 47.7496 77.2627 47.7496C73.6967 47.7496 68.8722 50.8392 67.1941 55.1227L65.4111 50.4179H67.8234V47.7496H56.4612V50.4179H57.7897L69.5364 81.6658H77.1578L89.3241 51.4361L91.6315 50.4179C91.6315 50.4179 92.086 47.6442 90.7575 47.8198Z" fill="#58595B"/>
<path d="M43.1062 50.4179H46.5323V70.8519L28.3529 47.7496H18.4241V50.4179H22.1299V79.1028H18.4241V81.736H29.7862V79.1028H26.3601V57.3697L46.5323 81.6658H50.7626V50.4179H54.4684V47.7496H43.1062V50.4179Z" fill="#58595B"/>
<path d="M138.479 56.8431L140.332 58.8443L149.002 51.9277L147.149 49.9264L145.226 51.4712C141.8 48.6624 136.94 47.3282 132.046 47.3282C121.523 47.3282 112.992 55.2982 112.992 65.1641C112.992 75.03 121.523 83 132.046 83C138.164 83 143.583 80.2965 147.079 76.0833L145.541 74.8194C140.996 78.8219 136.731 78.9974 133.06 78.9974C126.312 78.9974 120.859 72.5021 120.859 64.4619C120.859 56.4217 126.312 49.9264 133.06 49.9264C137.01 49.9264 141.625 53.0161 138.723 56.5973L138.479 56.8431Z" fill="#58595B"/>
<path d="M170.013 50.4179C171.726 50.4179 177.11 50.0317 179.348 56.7377L182.144 56.2813L180.187 45.7834L177.39 46.2398L177.669 47.7496H154.665L154.945 46.2398L152.148 45.7834L150.19 56.2813L152.987 56.7377C155.19 50.0668 160.504 50.4179 162.287 50.4179V79.1028H158.581V81.7711H173.614V79.1028H169.908V50.4179H170.013V50.4179Z" fill="#58595B"/>
<path d="M190.15 69.272L196.548 52.2086L202.946 69.272H190.15ZM214.273 79.1028L202.491 47.7847H193.402L181.62 79.1028H178.369V81.7712H189.731V79.1028H186.445L189.136 71.9404H203.96L206.652 79.1028H203.96V81.7712H217V79.1028H214.273Z" fill="#58595B"/>
</svg>
