<svg width="76" height="29" viewBox="0 0 76 29" fill="none" xmlns="http://www.w3.org/2000/svg">
<path d="M67.3433 4.93147C66.2169 5.63071 65.1883 5.91286 64.3312 6.10914L64.1476 6.15821L64.1843 6.32995C64.2578 6.62436 64.27 6.84518 64.0986 7.06599C63.6823 7.63029 62.1395 8.10871 59.3723 8.51354L59.2009 8.53807V8.70981C59.2009 9.93655 56.8133 10.1083 53.9359 10.1942L53.7277 10.2064L53.74 10.3904C53.7522 10.5376 53.7032 10.6603 53.593 10.7585C52.9563 11.2982 50.5565 10.9915 48.7933 10.7707L46.724 10.5254L46.8954 10.8321C46.9444 10.9179 46.9199 10.9425 46.9077 10.9547C46.7485 11.1755 45.72 11.2369 44.5078 11.1142L44.2874 11.0897V11.2982C44.2874 11.8503 44.2874 12.0465 42.3039 12.0465H42.1202V12.2305C42.1202 12.7826 40.8713 12.7826 39.5367 12.7826H39.3408V12.9666C39.3408 13.0525 39.3163 13.077 39.304 13.0893C39.1693 13.1997 38.6796 13.1874 38.0551 13.1751C38.0551 13.1751 37.9571 13.1751 37.9082 13.1751L43.3813 8.05964C43.4793 7.97377 43.5405 7.9247 43.5405 7.9247C43.5405 7.9247 43.4671 7.8511 43.3446 7.72843L40.2101 4.79653C40.3938 4.2813 40.9692 3.96235 43.014 3.96235L61.0988 4.25677C62.2742 4.25677 63.4007 4.12183 64.4782 3.99915C65.4087 3.88875 66.2781 3.79061 67.0495 3.79061C67.7719 3.79061 68.078 3.93782 68.127 4.06049C68.1759 4.21997 67.9555 4.55118 67.3433 4.93147ZM35.0675 15.3096C34.7981 15.0643 27.4149 8.17005 27.1577 7.9247C27.4271 7.67936 34.7981 0.78511 35.0675 0.539763C35.3369 0.78511 42.7079 7.67936 42.9773 7.9247C42.7202 8.15778 35.3369 15.052 35.0675 15.3096ZM32.0799 13.1751C31.4555 13.1874 30.9657 13.1997 30.831 13.0893C30.8188 13.077 30.7943 13.0525 30.7943 12.9666V12.7826H30.5984C29.276 12.7826 28.0148 12.7826 28.0148 12.2305V12.0465H27.8189C25.8354 12.0465 25.8354 11.8625 25.8354 11.2982V11.1019L25.615 11.1265C24.415 11.2492 23.3743 11.1878 23.2151 10.967C23.2028 10.9547 23.1906 10.9302 23.2273 10.8443L23.3865 10.5376L21.3295 10.7707C19.5785 11.0038 17.1664 11.3105 16.542 10.7585C16.4318 10.6603 16.3828 10.5499 16.395 10.3904L16.4073 10.2064L16.1991 10.1942C13.3095 10.1083 10.9219 9.93655 10.9219 8.70981V8.55034L10.7627 8.5258C7.9955 8.12098 6.45272 7.64255 6.03642 7.07826C5.87724 6.85744 5.88949 6.62436 5.95071 6.32995L5.99969 6.15821L5.81602 6.10914C4.94668 5.91286 3.91817 5.63071 2.7917 4.93147C2.17948 4.55118 1.94684 4.21997 2.00806 4.06049C2.05704 3.92555 2.36315 3.79061 3.08556 3.79061C3.86919 3.79061 4.73853 3.88875 5.65685 3.99915C6.74658 4.12183 7.86081 4.25677 9.03626 4.25677L27.121 3.97462C29.1658 3.97462 29.7413 4.29357 29.9249 4.8088C29.7658 4.96827 26.5945 7.9247 26.5945 7.9247L32.2268 13.1874C32.1656 13.1751 32.0799 13.1751 32.0799 13.1751ZM68.5065 3.96235C68.3963 3.6066 67.8943 3.42259 67.0495 3.42259C66.2413 3.42259 65.3598 3.52073 64.4292 3.63113C63.3517 3.75381 62.2497 3.88875 61.0988 3.88875L43.014 3.6066C41.41 3.6066 40.308 3.76607 39.904 4.52665L35.0675 0L30.231 4.52665C29.827 3.77834 28.7372 3.6066 27.121 3.6066L9.03626 3.88875C7.8853 3.88875 6.77107 3.75381 5.70582 3.63113C4.76302 3.52073 3.88143 3.42259 3.08556 3.42259C2.22846 3.42259 1.73869 3.6066 1.62849 3.96235C1.604 4.01142 1.604 4.06049 1.604 4.10956C1.604 4.45305 1.9346 4.8456 2.5713 5.23816C3.68552 5.92513 4.67731 6.21954 5.54665 6.42809C5.5344 6.51396 5.50992 6.58756 5.50992 6.67343C5.50992 6.86971 5.55889 7.07826 5.70582 7.27453C6.19559 7.93697 7.70164 8.42766 10.5668 8.85702C10.7382 10.231 13.0279 10.4518 16.0155 10.5499C16.04 10.7339 16.1134 10.8934 16.2604 11.0161C17.0317 11.6785 19.3459 11.3841 21.3784 11.1265C21.3784 11.1265 22.4437 11.0038 22.7988 10.9547C22.811 11.0406 22.8355 11.1142 22.8722 11.1633C23.2273 11.6294 24.6477 11.5681 25.4313 11.4945C25.468 12.1447 25.8109 12.39 27.6475 12.4023C27.8312 13.1138 29.0433 13.1506 30.4637 13.1506C30.4882 13.2242 30.4882 13.2978 30.5494 13.3469C30.7943 13.5677 31.2473 13.5554 32.0799 13.5309L32.5942 13.5186L35.0553 15.8126L37.5164 13.5186L38.0306 13.5309C38.8632 13.5554 39.3163 13.5677 39.5611 13.3469C39.6101 13.2978 39.6101 13.2119 39.6469 13.1506C41.0794 13.1506 42.2916 13.1261 42.463 12.4023C44.2997 12.39 44.6303 12.1447 44.6792 11.4945C45.4629 11.5681 46.8954 11.6294 47.2383 11.1633C47.275 11.1142 47.2995 11.0406 47.3117 10.9547C47.6791 10.9915 48.7321 11.1265 48.7321 11.1265C50.7769 11.3841 53.0788 11.6908 53.8502 11.0161C53.9971 10.8934 54.0706 10.7339 54.0951 10.5499C57.0949 10.4518 59.3723 10.231 59.556 8.85702C62.4211 8.42766 63.9272 7.93697 64.4169 7.27453C64.5639 7.06599 64.6129 6.86971 64.6129 6.67343C64.6129 6.58756 64.6006 6.51396 64.5761 6.42809C65.4455 6.21954 66.4372 5.92513 67.5515 5.23816C68.1882 4.8456 68.5188 4.44078 68.5188 4.10956C68.531 4.06049 68.531 4.01142 68.5065 3.96235Z" fill="#58595B"/>
<path d="M37.149 4.25678V6.01101H39.0346V9.91203H37.149V11.6785H32.9737V9.91203H31.0881V6.01101H32.9737V4.25678H37.149ZM32.5819 3.8765V5.64299H30.6963V10.28H32.5819V12.0465H37.5531V10.28H39.4387V5.64299H37.5531V3.8765H32.5819Z" fill="#58595B"/>
<path d="M0 17.6159H1.29789V27.6383H0V28.5584H5.26502V27.6383H3.96713V17.6159H5.26502V16.6836H0V17.6159Z" fill="#58595B"/>
<path d="M32.6798 17.6159H33.9777V27.6383H32.6798V28.5584H37.9448V27.6383H36.6469V17.6159H37.9448V16.6836H32.6798V17.6159Z" fill="#58595B"/>
<path d="M26.2028 26.3748L23.8151 20.0203L23.8641 20.1307C24.5743 18.2783 26.3497 18.3765 27.3415 18.4992C28.2965 18.6218 28.5414 18.9653 29.2516 18.8426L26.2028 26.3748ZM31.7861 16.7081C30.1087 16.9535 28.321 16.6836 27.0599 16.6836C25.8109 16.6836 24.1212 17.7631 23.5335 19.2597L22.9091 17.6159H23.7539V16.6836H19.7745V17.6159H20.2398L24.3539 28.5339H27.0231L31.2841 17.9717L32.0922 17.6159C32.0922 17.6159 32.2514 16.6468 31.7861 16.7081Z" fill="#58595B"/>
<path d="M15.0972 17.6159H16.2971V24.7555L9.93012 16.6836H6.45276V17.6159H7.75065V27.6383H6.45276V28.5584H10.4321V27.6383H9.2322V20.0448L16.2971 28.5338H17.7787V17.6159H19.0766V16.6836H15.0972V17.6159Z" fill="#58595B"/>
<path d="M48.4994 19.8608L49.1484 20.5601L52.1849 18.1434L51.536 17.4442L50.8625 17.9839C49.6626 17.0025 47.9607 16.5364 46.2465 16.5364C42.561 16.5364 39.5734 19.3211 39.5734 22.7682C39.5734 26.2153 42.561 29 46.2465 29C48.3892 29 50.2871 28.0554 51.5115 26.5833L50.9727 26.1417C49.381 27.5402 47.8872 27.6015 46.6016 27.6015C44.2384 27.6015 42.3283 25.3321 42.3283 22.5228C42.3283 19.7136 44.2384 17.4442 46.6016 17.4442C47.9852 17.4442 49.6014 18.5237 48.5851 19.775L48.4994 19.8608Z" fill="#58595B"/>
<path d="M59.5437 17.6159C60.1437 17.6159 62.0293 17.481 62.8129 19.824L63.7924 19.6646L63.1068 15.9966L62.1272 16.1561L62.2252 16.6836H54.1685L54.2664 16.1561L53.2869 15.9966L52.6012 19.6646L53.5807 19.824C54.3521 17.4932 56.2132 17.6159 56.8377 17.6159V27.6383H55.5398V28.5706H60.8048V27.6383H59.5069V17.6159H59.5437Z" fill="#58595B"/>
<path d="M66.5964 24.2035L68.8371 18.2415L71.0778 24.2035H66.5964ZM75.0449 27.6383L70.9186 16.6959H67.7351L63.6088 27.6383H62.4701V28.5707H66.4495V27.6383H65.2985L66.2413 25.1358H71.4329L72.3757 27.6383H71.4329V28.5707H76V27.6383H75.0449Z" fill="#58595B"/>
</svg>
