<svg width="73" height="48" viewBox="0 0 73 48" fill="none" xmlns="http://www.w3.org/2000/svg">
<path d="M20.4286 25.4199C20.2933 25.985 20.1863 26.5387 20.0229 27.0695C19.2848 29.4667 17.8707 31.3446 15.803 32.7258C15.6283 32.84 15.572 32.9598 15.572 33.1653C15.5776 35.1744 15.5776 37.1835 15.5776 39.1927C15.5776 39.8262 15.2959 40.1173 14.6761 40.1173C11.7126 40.1173 8.74346 40.1173 5.77993 40.1173C5.17145 40.1173 4.88974 39.8319 4.88974 39.2098C4.88974 37.2292 4.88411 35.2429 4.89538 33.2623C4.89538 32.9884 4.8165 32.8343 4.59114 32.6802C2.0727 30.9564 0.495155 28.5763 0.106403 25.5227C-0.440103 21.2305 1.12617 17.823 4.63057 15.3401C4.82213 15.2031 4.89538 15.0776 4.89538 14.8436C4.88411 12.863 4.88974 10.8767 4.88974 8.89611C4.88974 8.29109 5.17145 8 5.76303 8C8.73782 8 11.7126 8 14.6874 8C15.2903 8 15.5776 8.29109 15.5776 8.90753C15.5776 10.9052 15.5776 12.9086 15.572 14.9063C15.572 15.0947 15.6283 15.1974 15.7804 15.3002C17.9665 16.7442 19.4088 18.7476 20.1187 21.2933C20.1694 21.4702 20.2314 21.5273 20.4116 21.5216C20.8905 21.5102 21.3694 21.5159 21.8483 21.5159C22.2033 21.5159 22.3272 21.6414 22.3272 21.9953C22.3272 22.9713 22.3272 23.9531 22.3272 24.9291C22.3272 25.2944 22.2202 25.4028 21.8483 25.4085C21.3694 25.4199 20.8962 25.4199 20.4286 25.4199ZM10.2252 31.9267C14.5747 31.9153 18.0397 28.388 18.0341 23.9759C18.0284 19.6152 14.5128 16.0992 10.1745 16.1107C5.88134 16.1164 2.42201 19.678 2.42765 24.0729C2.43891 28.3994 5.94895 31.9382 10.2252 31.9267Z" fill="#FFF200"/>
<path d="M13.7465 23.6049C12.9352 23.8732 12.1182 24.1357 11.3126 24.4097C11.1999 24.4497 11.0928 24.5524 11.0252 24.6551C10.8224 24.9805 10.5576 25.1803 10.1688 25.1631C9.78571 25.146 9.51528 24.9577 9.34062 24.6038C9.29555 24.5125 9.18287 24.4268 9.08709 24.3983C7.97154 24.073 6.85035 23.7647 5.73481 23.4508C5.40239 23.3595 5.30662 23.0399 5.54888 22.8001C5.61086 22.7374 5.77424 22.7431 5.87566 22.7716C6.91233 23.057 7.949 23.3538 8.98567 23.6449C9.07582 23.6677 9.16596 23.7134 9.25611 23.7134C9.32935 23.7191 9.4195 23.6963 9.4702 23.6449C9.86459 23.251 10.197 23.194 10.6984 23.428C10.7829 23.4679 10.9125 23.4565 11.0083 23.428C12.6253 22.9029 14.2423 22.3664 15.8649 21.847C16.017 21.7956 16.2931 21.7785 16.3494 21.8584C16.479 22.041 16.5353 22.2979 16.5579 22.5262C16.5635 22.6004 16.372 22.7316 16.248 22.7773C15.4085 23.0684 14.5747 23.3367 13.7465 23.6049Z" fill="#FFF200"/>
<path d="M71.6546 19.6768C70.832 19.6768 70.0038 19.6597 69.1812 19.6825C68.8713 19.6882 68.7643 19.5855 68.6798 19.283C67.5868 15.3789 65.4853 12.2168 62.3809 9.80816L60.9724 3.02739C60.9724 2.46232 60.6456 2 60.2456 2H43.0278C42.6278 2 42.301 2.45662 42.301 3.02739L40.8868 9.8424C35.6133 14.0376 33.3034 19.6368 34.1823 26.566C34.7908 31.3377 37.0951 35.1561 40.7573 38.0442C40.7573 38.0499 40.7573 38.0613 40.7573 38.0671L42.301 45.4985C42.301 46.0636 42.6278 46.5259 43.0278 46.5259H60.2343C60.6343 46.5259 60.9611 46.0693 60.9611 45.4985L62.5048 38.0671V38.0613C65.3782 35.7897 67.3952 32.8559 68.5051 29.2372C68.7868 28.3183 68.9671 27.3651 69.2038 26.3891C70.0038 26.3891 70.8264 26.3948 71.6546 26.3891C72.2912 26.3834 72.4772 26.195 72.4772 25.5672C72.4772 23.8834 72.4772 22.1939 72.4772 20.5101C72.4772 19.8994 72.2631 19.6768 71.6546 19.6768ZM51.6254 37.6104C44.2504 37.6276 38.1994 31.5317 38.1881 24.0717C38.1768 16.4976 44.1433 10.3618 51.5296 10.3447C59.0117 10.3276 65.074 16.3949 65.0796 23.9062C65.0909 31.5146 59.1187 37.5933 51.6254 37.6104Z" fill="white"/>
<path d="M52.4198 22.9816C51.5634 22.582 50.9831 22.6791 50.307 23.3526C50.2225 23.4325 50.0647 23.4724 49.9408 23.4667C49.783 23.461 49.6309 23.3925 49.4731 23.3469C47.6871 22.8446 45.9068 22.3309 44.1151 21.8457C43.9405 21.8001 43.6588 21.7887 43.5573 21.8914C43.1404 22.3081 43.3094 22.856 43.8785 23.0158C45.8053 23.558 47.7322 24.0946 49.6591 24.6539C49.8281 24.7053 50.0253 24.848 50.0985 25.0078C50.3971 25.6185 50.8648 25.9439 51.5239 25.9724C52.1944 26.0009 52.6564 25.6528 53.0001 25.0934C53.1128 24.9165 53.3043 24.7338 53.4959 24.6653C54.8875 24.1859 56.2904 23.735 57.6933 23.2727C59.1243 22.8046 60.5554 22.3423 61.9752 21.8571C62.1893 21.7829 62.5217 21.5603 62.5104 21.4291C62.4766 21.0295 62.3752 20.59 62.1498 20.2761C62.0541 20.1334 61.5808 20.1734 61.316 20.2533C58.5215 21.1494 55.7382 22.074 52.9494 22.9816C52.786 23.0272 52.5663 23.0501 52.4198 22.9816Z" fill="white"/>
<path d="M36.3754 4.3739C34.932 4.06769 34.0145 3.70581 32.4816 3.70581C27.8213 3.70581 23.5134 5.18675 20 7.69767" stroke="#FFF200" stroke-width="1.5" stroke-miterlimit="10" stroke-linecap="round" stroke-linejoin="round"/>
<path d="M36.9574 45.8514C35.514 46.1576 34.0146 46.319 32.4817 46.319C27.8382 46.319 23.5415 44.8492 20.0337 42.3494" stroke="#FFF200" stroke-width="1.5" stroke-miterlimit="10" stroke-linecap="round" stroke-linejoin="round"/>
<path d="M34.1598 1L37.3095 4.72463L32.666 6.55075" stroke="#FFF200" stroke-width="1.5" stroke-miterlimit="10" stroke-linecap="round" stroke-linejoin="round"/>
<path d="M21.6784 46.6865L20 42.1156L24.9904 41.9764" stroke="#FFF200" stroke-width="1.5" stroke-miterlimit="10" stroke-linecap="round" stroke-linejoin="round"/>
</svg>
