<svg width="85" height="53" viewBox="0 0 85 53" fill="none" xmlns="http://www.w3.org/2000/svg">
<path d="M20.2854 27.9968C20.1512 28.548 20.0449 29.088 19.8826 29.6058C19.1497 31.9441 17.7455 33.7758 15.6923 35.1231C15.5188 35.2345 15.4629 35.3514 15.4629 35.5518C15.4685 37.5116 15.4685 39.4713 15.4685 41.4311C15.4685 42.049 15.1887 42.333 14.5733 42.333C11.6306 42.333 8.68221 42.333 5.73944 42.333C5.13522 42.333 4.85549 42.0546 4.85549 41.4478C4.85549 39.5159 4.84989 37.5784 4.86108 35.6465C4.86108 35.3792 4.78276 35.2289 4.55897 35.0786C2.05818 33.3972 0.491686 31.0756 0.105658 28.097C-0.43702 23.9103 1.11828 20.5865 4.59814 18.1702C4.78835 18.0366 4.86108 17.9141 4.86108 17.6859C4.84989 15.754 4.85549 13.8165 4.85549 11.8846C4.85549 11.2944 5.13522 11.0105 5.72265 11.0105C8.67661 11.0105 11.6306 11.0105 14.5845 11.0105C15.1832 11.0105 15.4685 11.2944 15.4685 11.8957C15.4685 13.8443 15.4685 15.7985 15.4629 17.7471C15.4629 17.9308 15.5188 18.0311 15.6699 18.1313C17.8406 19.5398 19.2728 21.494 19.9777 23.9771C20.0281 24.1497 20.0896 24.2054 20.2687 24.1998C20.7442 24.1887 21.2197 24.1942 21.6953 24.1942C22.0477 24.1942 22.1708 24.3167 22.1708 24.6619C22.1708 25.6139 22.1708 26.5715 22.1708 27.5236C22.1708 27.8799 22.0645 27.9857 21.6953 27.9912C21.2197 28.0024 20.7498 27.9968 20.2854 27.9968ZM10.1536 34.3493C14.4726 34.3381 17.9133 30.8974 17.9077 26.5938C17.9021 22.3403 14.4111 18.9051 10.1032 18.9163C5.84014 18.9274 2.40505 22.4015 2.41064 26.6829C2.42183 30.9086 5.90728 34.3548 10.1536 34.3493Z" fill="#FFF200"/>
<path d="M13.65 26.2319C12.8444 26.4935 12.0332 26.7496 11.2331 27.0169C11.1212 27.0558 11.0149 27.1561 10.9478 27.2563C10.7464 27.5736 10.4835 27.7685 10.0974 27.7518C9.717 27.7351 9.44846 27.5513 9.27502 27.2062C9.23027 27.1171 9.11837 27.0336 9.02327 27.0057C7.91553 26.6884 6.8022 26.3877 5.69447 26.0815C5.36439 25.9925 5.26928 25.6807 5.50985 25.4468C5.57139 25.3856 5.73363 25.3912 5.83433 25.419C6.86374 25.6974 7.89315 25.9869 8.92256 26.2708C9.01208 26.2931 9.10159 26.3376 9.19111 26.3376C9.26384 26.3432 9.35335 26.3209 9.4037 26.2708C9.79532 25.8867 10.1254 25.831 10.6233 26.0593C10.7072 26.0982 10.8359 26.0871 10.931 26.0593C12.5367 25.5471 14.1423 25.0237 15.7536 24.5171C15.9046 24.467 16.1788 24.4503 16.2347 24.5282C16.3634 24.7064 16.4193 24.9569 16.4417 25.1796C16.4473 25.252 16.2571 25.38 16.134 25.4246C15.3004 25.7085 14.4724 25.9646 13.65 26.2319Z" fill="#FFF200"/>
<path d="M36.5629 6.03321C35.1195 5.727 34.202 5.36511 32.6691 5.36511C28.0088 5.36511 23.7009 6.84605 20.1875 9.35697" stroke="#FFF200" stroke-width="1.5" stroke-miterlimit="10" stroke-linecap="round" stroke-linejoin="round"/>
<path d="M37.1449 47.5107C35.7015 47.8169 34.2021 47.9784 32.6692 47.9784C28.0257 47.9784 23.729 46.5086 20.2212 44.0088" stroke="#FFF200" stroke-width="1.5" stroke-miterlimit="10" stroke-linecap="round" stroke-linejoin="round"/>
<path d="M34.3473 2.6593L37.497 6.38393L32.8535 8.21005" stroke="#FFF200" stroke-width="1.5" stroke-miterlimit="10" stroke-linecap="round" stroke-linejoin="round"/>
<path d="M21.8659 48.3458L20.1875 43.7749L25.1779 43.6357" stroke="#FFF200" stroke-width="1.5" stroke-miterlimit="10" stroke-linecap="round" stroke-linejoin="round"/>
<path d="M26.9746 19.2793C26.9746 18.9709 26.8982 18.7289 26.7456 18.5532C26.593 18.3775 26.3249 18.2116 25.9413 18.0555C25.5577 17.8994 25.2035 17.7413 24.8787 17.5812C24.5538 17.4212 24.274 17.2357 24.0391 17.0249C23.8043 16.8142 23.6243 16.5702 23.499 16.293C23.3738 16.0159 23.3112 15.6802 23.3112 15.2859C23.3112 14.6262 23.5342 14.0836 23.9804 13.6581C24.4266 13.2287 25.0215 12.9789 25.7652 12.9086V11.6731H26.6986V12.932C27.4149 13.0374 27.9765 13.3321 28.3836 13.8162C28.7945 14.2963 29 14.9072 29 15.6489H27.0157C27.0157 15.2429 26.9374 14.9307 26.7808 14.7121C26.6243 14.4935 26.4012 14.3842 26.1115 14.3842C25.8532 14.3842 25.6517 14.4661 25.5068 14.6301C25.3659 14.7901 25.2955 15.0126 25.2955 15.2976C25.2955 15.5865 25.3777 15.8168 25.5421 15.9885C25.7065 16.1564 25.9706 16.3184 26.3346 16.4745C26.6986 16.6268 27.0411 16.7868 27.362 16.9547C27.6869 17.1186 27.9667 17.306 28.2016 17.5168C28.4364 17.7276 28.6204 17.9735 28.7534 18.2546C28.8865 18.5356 28.953 18.8733 28.953 19.2676C28.953 19.9351 28.7397 20.4796 28.3131 20.9012C27.8904 21.3228 27.3131 21.5687 26.5812 21.639V22.816H25.6477V21.6332C24.7945 21.5434 24.1389 21.2526 23.681 20.7607C23.227 20.2649 23 19.613 23 18.805H24.9785C24.9785 19.25 25.0763 19.5896 25.272 19.8238C25.4716 20.0541 25.7534 20.1693 26.1174 20.1693C26.3836 20.1693 26.593 20.0912 26.7456 19.9351C26.8982 19.775 26.9746 19.5564 26.9746 19.2793Z" fill="#FFF200"/>
<path d="M71.4308 23.4909C68.914 24.2872 66.4028 25.1112 63.8861 25.9186C63.7413 25.9632 63.5409 25.9854 63.4072 25.9242C62.6333 25.5678 62.1099 25.6569 61.503 26.2583C61.4306 26.3307 61.2802 26.3641 61.1744 26.3585C61.0297 26.3529 60.8905 26.2917 60.7513 26.2527C59.1421 25.8017 57.5329 25.3507 55.9182 24.9164C55.7623 24.8718 55.5062 24.8663 55.4115 24.9553C55.0329 25.3284 55.1888 25.8128 55.7011 25.9576C57.4383 26.442 59.1811 26.9209 60.9127 27.4164C61.0631 27.461 61.2413 27.589 61.3136 27.7282C61.5809 28.2739 62.0041 28.5634 62.5943 28.5857C63.1956 28.6136 63.6133 28.3017 63.9251 27.8006C64.0253 27.6391 64.1979 27.4832 64.3705 27.422C65.6289 26.9932 66.8928 26.5923 68.1568 26.1859C69.443 25.7683 70.7348 25.3618 72.021 24.9219C72.2103 24.8551 72.5166 24.6547 72.5054 24.5377C72.4776 24.1814 72.3829 23.7916 72.1825 23.5077C72.0934 23.3852 71.6646 23.413 71.4308 23.4909Z" fill="white"/>
<path d="M83.7751 30.5457C83.3575 30.3786 82.9399 30.2116 82.5056 30.0835C82.1826 29.9889 82.1214 29.8107 82.1715 29.5044C82.4666 27.6057 82.461 25.707 82.1659 23.8083C82.1214 23.5132 82.2049 23.3685 82.4944 23.2738C82.9065 23.1457 83.3074 22.9787 83.7139 22.8228C84.4878 22.5221 84.8052 21.8985 84.5268 21.119C83.8196 19.1479 83.1014 17.1768 82.3664 15.2168C82.1103 14.5264 81.4588 14.2536 80.7517 14.4819C80.3452 14.6155 79.9387 14.7658 79.4933 14.9217C79.4098 14.6656 79.3262 14.4429 79.2594 14.209C78.3797 11.3081 77.4999 8.40711 76.6202 5.51173C76.2749 4.38142 75.5344 3.6353 74.3985 3.31235C74.1368 3.23997 73.8584 3.21769 73.541 3.16201C73.541 2.956 73.5466 2.76668 73.541 2.58294C73.5132 1.42478 72.7559 0.673096 71.5922 0.673096C65.7235 0.673096 59.8659 0.673096 54.0028 0.678664C53.4181 0.678664 52.9337 0.89025 52.5996 1.24104H52.594V1.2466C52.2878 1.57512 52.104 2.02613 52.0929 2.56066C52.0873 2.74998 52.0929 2.93929 52.0929 3.14531C50.5673 3.48496 49.8824 3.80234 49.3868 4.68766V4.69323C49.1753 5.07185 48.9971 5.55071 48.8078 6.1799C47.9726 8.93051 47.1318 11.6811 46.2966 14.4262C46.2465 14.5821 46.1852 14.738 46.124 14.9162C45.6674 14.7547 45.2609 14.5988 44.8544 14.4707C44.1751 14.2536 43.5181 14.5264 43.2731 15.1834C42.527 17.1768 41.792 19.1757 41.0849 21.1858C40.8287 21.9041 41.1684 22.5277 41.8867 22.8061C42.2709 22.9564 42.6606 23.1179 43.056 23.2348C43.4012 23.3351 43.5125 23.5021 43.4569 23.8696C43.1618 25.7293 43.1618 27.6002 43.4569 29.4599C43.5125 29.8274 43.4068 29.9944 43.0615 30.0947C42.6829 30.206 42.3098 30.3619 41.9424 30.5067C41.135 30.8241 40.8232 31.4366 41.1127 32.2439C41.8087 34.1816 42.5159 36.1193 43.2341 38.0514C43.5237 38.8254 44.1584 39.0982 44.9547 38.8365C45.3444 38.7084 45.7286 38.5692 46.1407 38.4245C46.2242 38.6806 46.3021 38.8922 46.369 39.1038C47.2487 42.0047 48.1285 44.9001 49.0138 47.8011C49.359 48.9314 50.0773 49.6886 51.2243 50.0171C51.5027 50.0951 51.7922 50.1229 52.1096 50.1786C52.1096 50.3735 52.1096 50.5461 52.1096 50.7187C52.1207 51.9103 52.8724 52.662 54.064 52.6731C54.3424 52.6731 54.6208 52.6731 54.8936 52.6731C60.445 52.6731 65.9908 52.6731 71.5421 52.6731C72.8005 52.6731 73.541 51.9437 73.5633 50.6742C73.5689 50.5071 73.58 50.3401 73.5911 50.1842C73.6858 50.1563 73.7303 50.1341 73.7805 50.1285C75.3506 49.967 76.2638 49.0873 76.7092 47.595C77.5612 44.7052 78.4632 41.8321 79.3429 38.9479C79.393 38.7752 79.4599 38.6082 79.5267 38.4189C79.9944 38.5859 80.4009 38.7418 80.8073 38.8699C81.4866 39.0815 82.1325 38.8031 82.3831 38.1405C83.1292 36.1471 83.8586 34.1426 84.5713 32.1381C84.7885 31.4477 84.46 30.8241 83.7751 30.5457ZM81.2082 15.64C81.9376 17.6445 82.6504 19.6045 83.3853 21.6257C82.8508 21.8261 82.3998 21.9932 81.9488 22.1602C81.2361 20.1557 80.5289 18.179 79.8051 16.1578C80.3062 15.9685 80.7294 15.8126 81.2082 15.64ZM62.7947 7.03181C62.5107 7.03181 62.2268 7.04294 61.9484 7.05408C62.2268 7.04294 62.5107 7.03181 62.7947 7.03181ZM47.8334 13.8582C47.7999 13.8972 47.761 13.9306 47.7276 13.9752C47.7276 13.9752 47.7665 13.9306 47.8334 13.8582ZM42.2319 21.6201C42.9613 19.6212 43.6796 17.6501 44.409 15.6344C44.8767 15.8015 45.2943 15.9518 45.8122 16.1411C45.0994 18.1456 44.3979 20.1223 43.674 22.1546C43.2397 21.9932 42.7776 21.8205 42.2319 21.6201ZM44.409 37.7173C43.6852 35.7295 42.9724 33.7807 42.2263 31.7372C42.7163 31.5535 43.1896 31.3753 43.6796 31.186C44.0415 32.2439 44.3812 33.2462 44.7319 34.2373C45.0772 35.2117 45.4447 36.175 45.8233 37.1995C45.3166 37.3888 44.8879 37.5447 44.409 37.7173ZM77.8563 39.4824L77.873 39.3877C77.8785 39.3822 77.8841 39.3766 77.8897 39.371C77.8785 39.4044 77.8674 39.4434 77.8563 39.4824ZM62.6945 45.0838C52.3435 45.0282 44.3422 36.3977 44.4591 26.3585C44.576 16.4474 52.8502 8.24007 62.9061 8.25121C72.9508 8.26791 81.1637 16.5699 81.1525 26.6982C81.1358 36.8877 72.8784 45.1395 62.6945 45.0838ZM81.2082 37.7117C80.7238 37.5391 80.3062 37.3832 79.8107 37.2051C80.5289 35.1839 81.2361 33.2072 81.9543 31.1916C82.3998 31.3586 82.8675 31.5368 83.3909 31.7317C82.6559 33.7306 81.9432 35.6905 81.2082 37.7117Z" fill="white"/>
<path d="M62.8834 11.4751C54.4589 11.464 47.6714 18.2292 47.6436 26.6536C47.6213 35.0335 54.4255 41.8711 62.7887 41.8767C71.1742 41.8767 77.9616 35.0892 77.9728 26.6926C77.9839 18.3182 71.202 11.4807 62.8834 11.4751ZM75.1553 33.0958C74.6319 32.8007 74.1531 32.5223 73.6742 32.2551C73.2121 31.9989 72.878 32.049 72.6831 32.3887C72.4827 32.7395 72.6052 33.0569 73.0506 33.3241C73.5239 33.6081 74.0027 33.8865 74.4705 34.1593C73.9471 35.3676 71.9259 37.4334 70.2889 38.4189C70.0494 38.0124 69.8156 37.6004 69.5761 37.1884C69.1975 36.5313 68.9024 36.3587 68.5182 36.5703C68.1285 36.7819 68.1229 37.1549 68.4848 37.7897C68.7187 38.1906 68.947 38.5971 69.2087 39.0537C67.3935 40.0114 65.5059 40.518 63.4235 40.6183C63.4235 40.0058 63.4179 39.4378 63.4235 38.8699C63.429 38.4523 63.301 38.1461 62.8332 38.1127C62.4268 38.0848 62.1985 38.3576 62.1929 38.8699C62.1874 39.4211 62.1929 39.9724 62.1929 40.6016C60.1327 40.5348 58.2507 39.9947 56.4077 39.0537C56.6973 38.547 56.9757 38.0737 57.2429 37.5948C57.5102 37.116 57.4601 36.7373 57.0982 36.5592C56.6527 36.3476 56.3799 36.5814 56.1739 36.9545C55.9066 37.4334 55.6282 37.9066 55.3331 38.4189C53.607 37.2941 52.2261 35.9133 51.1069 34.176C51.5969 33.8865 52.0702 33.6081 52.5379 33.3297C53.0168 33.0457 53.1504 32.7172 52.9388 32.3664C52.7328 32.0212 52.3932 31.9822 51.8976 32.2662C51.4354 32.5279 50.9733 32.7952 50.4722 33.0791C49.5145 31.2417 49.0133 29.343 48.9187 27.2717C49.5367 27.2717 50.1047 27.2661 50.6726 27.2717C51.1014 27.2772 51.4076 27.1046 51.4132 26.6592C51.4187 26.2193 51.1181 26.03 50.6838 26.0356C50.1158 26.0411 49.5479 26.0356 48.9243 26.0356C48.9966 23.9642 49.5256 22.0767 50.4666 20.2225C50.9789 20.5176 51.4577 20.7793 51.931 21.0577C52.2985 21.2804 52.6493 21.3528 52.9333 20.9464C53.1671 20.6123 53.0223 20.2615 52.5491 19.9831C52.0869 19.7103 51.6248 19.443 51.1069 19.1367C52.1983 17.4051 53.5959 16.0298 55.3275 14.8828C55.6171 15.3839 55.8899 15.8627 56.1683 16.336C56.4467 16.8149 56.7919 16.9652 57.1316 16.7369C57.538 16.4585 57.4712 16.0966 57.2596 15.7291C56.9924 15.2614 56.7251 14.7992 56.4189 14.2703C58.2118 13.3014 60.1049 12.8114 62.2041 12.6945C62.2041 13.2736 62.2041 13.8248 62.2041 14.3705C62.2096 14.9496 62.4045 15.2057 62.8221 15.2057C63.2397 15.2057 63.429 14.944 63.4346 14.3649C63.4346 13.8304 63.4346 13.2959 63.4346 12.7001C65.5059 12.7947 67.3935 13.307 69.2254 14.2647C68.9358 14.7714 68.6686 15.2335 68.4124 15.6957C68.1396 16.1801 68.1786 16.542 68.5182 16.7425C68.869 16.9541 69.192 16.8149 69.4759 16.336C69.7488 15.8739 70.016 15.4117 70.3111 14.8995C72.0372 16.0075 73.4181 17.3995 74.5428 19.1423C74.0195 19.4486 73.5295 19.727 73.0395 20.0221C72.6107 20.2782 72.4827 20.6345 72.711 20.9631C72.9782 21.3417 73.3123 21.3027 73.6687 21.0911C74.1475 20.8127 74.6264 20.5399 75.1609 20.2337C76.1186 22.0544 76.6253 23.9475 76.72 26.0467C76.3191 26.0467 75.946 26.0467 75.5729 26.0467C74.4983 26.0467 74.2088 26.1803 74.2199 26.6759C74.231 27.1547 74.5206 27.2772 75.6008 27.2772C75.9627 27.2772 76.3191 27.2772 76.72 27.2772C76.6197 29.3708 76.0963 31.264 75.1553 33.0958Z" fill="white"/>
</svg>
